<?xml version="1.0" encoding="utf-8"?>
<!-- Generator: Adobe Illustrator 26.0.1, SVG Export Plug-In . SVG Version: 6.00 Build 0)  -->
<svg version="1.1" id="Camada_1" xmlns="http://www.w3.org/2000/svg" xmlns:xlink="http://www.w3.org/1999/xlink" x="0px" y="0px"
	 viewBox="0 0 437.28 159" style="enable-background:new 0 0 437.28 159;" xml:space="preserve">
<style type="text/css">
	.Logo0{fill:#FFFFFF;}
</style>
<g>
	<g>
		<path class="Logo0" d="M224.54,84.73c-3.16,10.7-13.05,18.53-24.76,18.53c-11.7,0-21.59-7.82-24.76-18.53h-13.08
			c3.42,17.77,19.08,31.24,37.83,31.24c18.74,0,34.4-13.46,37.83-31.24H224.54z"/>
		<circle class="Logo0" cx="171.5" cy="52.16" r="7.97"/>
		<path class="Logo0" d="M9.42,84.6V16.5h51.26v12.46H24.84v14.8h35.08v12.45H24.84V84.6H9.42z"/>
		<path class="Logo0" d="M68.17,84.6V16.5h15.42v68.1H68.17z"/>
		<path class="Logo0" d="M94.67,84.6V16.5h38.12c13.79,0,20.85,8.27,20.85,17.36c0,8.58-5.65,14.29-12.49,15.62
			c7.71,1.12,13.9,8.17,13.9,16.74c0,10.21-7.28,18.38-21.07,18.38H94.67z M110.09,43.86h19.33c5.21,0,8.47-3.16,8.47-7.55
			c0-4.19-3.26-7.45-8.47-7.45h-19.33V43.86z M110.09,72.25h19.88c5.86,0,9.34-3.17,9.34-8.07c0-4.29-3.26-7.96-9.34-7.96h-19.88
			V72.25z"/>
		<path class="Logo0" d="M192.12,84.6V29.26h-30.61V16.5h76.64v12.76h-30.5V84.6H192.12z"/>
	</g>
	<g>
		<g>
			<path class="Logo0" d="M281.34,40.54h-2.92V18.02h14.02v2.33h-11.09v8.24h10.42v2.33h-10.42V40.54z"/>
			<path class="Logo0" d="M303.07,40.85c-2.79,0-4.99-0.76-6.6-2.28c-1.61-1.52-2.42-3.63-2.42-6.33c0-2.72,0.75-4.88,2.25-6.48
				c1.5-1.6,3.51-2.4,6.03-2.4c2.36,0,4.23,0.7,5.61,2.09c1.38,1.39,2.06,3.23,2.06,5.51v1.62h-12.99c0.06,1.98,0.62,3.49,1.68,4.51
				c1.06,1.03,2.55,1.54,4.48,1.54c2.03,0,4.04-0.38,6.02-1.14v2.28c-1.01,0.39-1.96,0.67-2.86,0.84
				C305.43,40.76,304.35,40.85,303.07,40.85z M302.3,25.49c-1.51,0-2.72,0.44-3.62,1.32c-0.9,0.88-1.43,2.1-1.59,3.67h9.86
				c0-1.61-0.4-2.85-1.2-3.7C304.94,25.92,303.79,25.49,302.3,25.49z"/>
			<path class="Logo0" d="M316.67,40.54h-2.86V16.58h2.86V40.54z"/>
			<path class="Logo0" d="M321.43,19.09c0-0.58,0.16-1.01,0.48-1.29c0.32-0.27,0.72-0.41,1.2-0.41c0.46,0,0.85,0.14,1.19,0.42
				c0.33,0.28,0.5,0.7,0.5,1.28c0,0.58-0.17,1-0.5,1.29c-0.33,0.28-0.73,0.42-1.19,0.42c-0.48,0-0.88-0.14-1.2-0.42
				C321.59,20.09,321.43,19.66,321.43,19.09z M324.53,40.54h-2.86V23.66h2.86V40.54z"/>
			<path class="Logo0" d="M337.06,40.85c-2.73,0-4.84-0.75-6.34-2.26c-1.5-1.5-2.25-3.63-2.25-6.38c0-2.82,0.76-5,2.28-6.54
				c1.52-1.54,3.68-2.31,6.49-2.31c0.91,0,1.81,0.09,2.72,0.26c0.91,0.17,1.62,0.38,2.13,0.62l-0.88,2.17
				c-0.63-0.23-1.32-0.41-2.06-0.56c-0.75-0.15-1.4-0.22-1.98-0.22c-3.83,0-5.75,2.19-5.75,6.56c0,2.07,0.47,3.67,1.4,4.77
				c0.93,1.11,2.32,1.66,4.15,1.66c1.57,0,3.18-0.3,4.83-0.91v2.26C340.56,40.55,338.97,40.85,337.06,40.85z"/>
			<path class="Logo0" d="M345,19.09c0-0.58,0.16-1.01,0.48-1.29c0.32-0.27,0.72-0.41,1.2-0.41c0.46,0,0.85,0.14,1.19,0.42
				c0.33,0.28,0.5,0.7,0.5,1.28c0,0.58-0.17,1-0.5,1.29c-0.33,0.28-0.73,0.42-1.19,0.42c-0.48,0-0.88-0.14-1.2-0.42
				C345.16,20.09,345,19.66,345,19.09z M348.09,40.54h-2.86V23.66h2.86V40.54z"/>
			<path class="Logo0" d="M365.92,38.27h-0.15c-1.32,1.71-3.29,2.57-5.92,2.57c-2.47,0-4.38-0.75-5.75-2.26
				c-1.37-1.51-2.06-3.65-2.06-6.44s0.69-4.94,2.06-6.48c1.38-1.54,3.29-2.31,5.75-2.31c2.56,0,4.52,0.83,5.88,2.49h0.22l-0.12-1.22
				l-0.07-1.19v-6.87h2.86v23.96h-2.32L365.92,38.27z M360.21,38.71c1.95,0,3.36-0.47,4.24-1.42c0.88-0.95,1.32-2.48,1.32-4.6v-0.54
				c0-2.39-0.44-4.1-1.33-5.12s-2.31-1.53-4.26-1.53c-1.67,0-2.96,0.58-3.84,1.75c-0.89,1.17-1.33,2.81-1.33,4.94
				c0,2.16,0.44,3.78,1.32,4.88C357.21,38.16,358.5,38.71,360.21,38.71z"/>
			<path class="Logo0" d="M385.22,40.54l-0.57-2.4h-0.14c-0.94,1.06-1.88,1.77-2.81,2.15c-0.94,0.37-2.1,0.56-3.5,0.56
				c-1.87,0-3.33-0.43-4.4-1.29c-1.06-0.86-1.59-2.09-1.59-3.68c0-3.41,3.04-5.19,9.13-5.36l3.2-0.09v-1.05
				c0-1.32-0.32-2.3-0.95-2.93s-1.65-0.95-3.05-0.95c-1.57,0-3.35,0.43-5.33,1.29l-0.88-1.96c0.93-0.45,1.95-0.81,3.05-1.06
				c1.11-0.26,2.22-0.38,3.33-0.38c2.25,0,3.91,0.45,5,1.34s1.63,2.33,1.63,4.3v11.52H385.22z M378.76,38.74
				c1.78,0,3.17-0.44,4.19-1.31c1.01-0.87,1.52-2.09,1.52-3.67v-1.52l-2.86,0.11c-2.27,0.07-3.91,0.39-4.91,0.95
				c-1,0.56-1.51,1.43-1.51,2.61c0,0.92,0.31,1.63,0.94,2.11S377.64,38.74,378.76,38.74z"/>
			<path class="Logo0" d="M404.99,38.27h-0.15c-1.32,1.71-3.29,2.57-5.92,2.57c-2.47,0-4.38-0.75-5.75-2.26
				c-1.37-1.51-2.06-3.65-2.06-6.44s0.69-4.94,2.06-6.48c1.38-1.54,3.29-2.31,5.75-2.31c2.56,0,4.52,0.83,5.88,2.49h0.22l-0.12-1.22
				l-0.07-1.19v-6.87h2.86v23.96h-2.32L404.99,38.27z M399.28,38.71c1.95,0,3.36-0.47,4.24-1.42c0.88-0.95,1.32-2.48,1.32-4.6v-0.54
				c0-2.39-0.44-4.1-1.33-5.12s-2.31-1.53-4.26-1.53c-1.67,0-2.96,0.58-3.84,1.75c-0.89,1.17-1.33,2.81-1.33,4.94
				c0,2.16,0.44,3.78,1.32,4.88C396.27,38.16,397.57,38.71,399.28,38.71z"/>
			<path class="Logo0" d="M420.65,40.85c-2.79,0-4.99-0.76-6.6-2.28c-1.61-1.52-2.42-3.63-2.42-6.33c0-2.72,0.75-4.88,2.25-6.48
				c1.5-1.6,3.51-2.4,6.03-2.4c2.36,0,4.23,0.7,5.61,2.09c1.38,1.39,2.06,3.23,2.06,5.51v1.62H414.6c0.06,1.98,0.62,3.49,1.68,4.51
				c1.06,1.03,2.55,1.54,4.48,1.54c2.03,0,4.04-0.38,6.02-1.14v2.28c-1.01,0.39-1.96,0.67-2.86,0.84
				C423.01,40.76,421.93,40.85,420.65,40.85z M419.88,25.49c-1.51,0-2.72,0.44-3.62,1.32c-0.9,0.88-1.43,2.1-1.59,3.67h9.86
				c0-1.61-0.4-2.85-1.2-3.7C422.52,25.92,421.37,25.49,419.88,25.49z"/>
			<path class="Logo0" d="M278.41,73.66V51.15h2.92v22.51H278.41z"/>
			<path class="Logo0" d="M299.65,73.66V62.74c0-1.38-0.35-2.4-1.05-3.08c-0.7-0.68-1.79-1.02-3.29-1.02c-1.97,0-3.42,0.48-4.33,1.43
				c-0.92,0.95-1.38,2.53-1.38,4.73v8.85h-2.86V56.78h2.32l0.46,2.31h0.14c0.58-0.83,1.4-1.48,2.46-1.93
				c1.05-0.46,2.23-0.69,3.53-0.69c2.27,0,3.98,0.49,5.13,1.47c1.15,0.98,1.72,2.55,1.72,4.7v11.01H299.65z"/>
			<path class="Logo0" d="M313.4,71.86c0.5,0,0.99-0.03,1.46-0.1c0.47-0.07,0.84-0.14,1.12-0.21v1.96c-0.31,0.13-0.77,0.24-1.37,0.33
				c-0.6,0.09-1.14,0.13-1.63,0.13c-3.65,0-5.47-1.72-5.47-5.16V58.77h-2.7v-1.23l2.7-1.06l1.2-3.6h1.65v3.91h5.47v1.99h-5.47v9.93
				c0,1.02,0.27,1.8,0.81,2.34C311.72,71.59,312.46,71.86,313.4,71.86z"/>
			<path class="Logo0" d="M326.66,73.97c-2.79,0-4.99-0.76-6.6-2.28c-1.61-1.52-2.42-3.63-2.42-6.33c0-2.72,0.75-4.88,2.25-6.48
				c1.5-1.6,3.51-2.4,6.03-2.4c2.36,0,4.23,0.7,5.61,2.09c1.38,1.39,2.06,3.23,2.06,5.51v1.62H320.6c0.06,1.98,0.62,3.49,1.68,4.51
				c1.06,1.03,2.55,1.54,4.48,1.54c2.03,0,4.04-0.38,6.02-1.14v2.28c-1.01,0.39-1.96,0.67-2.86,0.84
				C329.02,73.88,327.93,73.97,326.66,73.97z M325.88,58.61c-1.51,0-2.72,0.44-3.62,1.32c-0.9,0.88-1.43,2.1-1.59,3.67h9.86
				c0-1.61-0.4-2.85-1.2-3.7C328.52,59.04,327.37,58.61,325.88,58.61z"/>
			<path class="Logo0" d="M346,56.47c0.84,0,1.59,0.06,2.25,0.18l-0.4,2.37c-0.78-0.15-1.47-0.23-2.06-0.23
				c-1.53,0-2.83,0.55-3.91,1.66c-1.08,1.11-1.63,2.49-1.63,4.14v9.05h-2.86V56.78h2.36l0.33,3.13h0.14c0.7-1.1,1.54-1.95,2.53-2.54
				C343.74,56.77,344.82,56.47,346,56.47z"/>
			<path class="Logo0" d="M363.63,73.66V62.74c0-1.38-0.35-2.4-1.05-3.08c-0.7-0.68-1.79-1.02-3.29-1.02c-1.97,0-3.42,0.48-4.33,1.43
				c-0.92,0.95-1.38,2.53-1.38,4.73v8.85h-2.86V56.78h2.32l0.46,2.31h0.14c0.58-0.83,1.4-1.48,2.46-1.93
				c1.05-0.46,2.23-0.69,3.53-0.69c2.27,0,3.98,0.49,5.13,1.47c1.15,0.98,1.72,2.55,1.72,4.7v11.01H363.63z"/>
			<path class="Logo0" d="M382.88,73.66l-0.57-2.4h-0.14c-0.94,1.06-1.88,1.77-2.81,2.15c-0.94,0.37-2.1,0.56-3.5,0.56
				c-1.87,0-3.33-0.43-4.4-1.29c-1.06-0.86-1.59-2.09-1.59-3.68c0-3.41,3.04-5.19,9.13-5.36l3.2-0.09v-1.05
				c0-1.32-0.32-2.3-0.95-2.93s-1.65-0.95-3.05-0.95c-1.57,0-3.35,0.43-5.33,1.29L372,57.95c0.93-0.45,1.95-0.81,3.05-1.06
				c1.11-0.26,2.22-0.38,3.33-0.38c2.25,0,3.91,0.45,5,1.34s1.63,2.33,1.63,4.3v11.52H382.88z M376.43,71.86
				c1.78,0,3.17-0.44,4.19-1.31c1.01-0.87,1.52-2.09,1.52-3.67v-1.52l-2.86,0.11c-2.27,0.07-3.91,0.39-4.91,0.95
				c-1,0.56-1.51,1.43-1.51,2.61c0,0.92,0.31,1.63,0.94,2.11S375.31,71.86,376.43,71.86z"/>
			<path class="Logo0" d="M278.41,84.27h7.1c3.34,0,5.75,0.45,7.24,1.34c1.49,0.89,2.24,2.3,2.24,4.23c0,1.33-0.42,2.44-1.25,3.3
				c-0.83,0.87-2.04,1.43-3.64,1.69v0.15c3.82,0.59,5.73,2.38,5.73,5.39c0,2.01-0.76,3.58-2.28,4.71s-3.64,1.69-6.37,1.69h-8.77
				V84.27z M281.34,93.9h4.82c2.06,0,3.55-0.29,4.46-0.87c0.91-0.58,1.36-1.56,1.36-2.93c0-1.26-0.5-2.17-1.51-2.73
				c-1.01-0.56-2.61-0.84-4.82-0.84h-4.3V93.9z M281.34,96.12v8.42h5.25c2.03,0,3.56-0.35,4.58-1.05c1.03-0.7,1.54-1.8,1.54-3.3
				c0-1.4-0.52-2.42-1.57-3.08c-1.05-0.66-2.65-0.99-4.79-0.99H281.34z"/>
			<path class="Logo0" d="M308.35,89.59c0.84,0,1.59,0.06,2.25,0.18l-0.4,2.37c-0.78-0.15-1.47-0.23-2.06-0.23
				c-1.53,0-2.83,0.55-3.91,1.66c-1.08,1.11-1.63,2.49-1.63,4.14v9.05h-2.86V89.9h2.36l0.33,3.13h0.14c0.7-1.1,1.54-1.95,2.53-2.54
				C306.09,89.89,307.17,89.59,308.35,89.59z"/>
			<path class="Logo0" d="M315.76,89.9v10.95c0,1.38,0.35,2.4,1.05,3.08c0.7,0.68,1.79,1.02,3.29,1.02c1.97,0,3.41-0.48,4.33-1.45
				c0.91-0.96,1.37-2.54,1.37-4.73V89.9h2.86v16.88h-2.36l-0.41-2.26h-0.15c-0.58,0.83-1.4,1.47-2.43,1.91
				c-1.04,0.44-2.22,0.66-3.55,0.66c-2.29,0-4.01-0.49-5.15-1.46c-1.14-0.98-1.71-2.54-1.71-4.68V89.9H315.76z"/>
			<path class="Logo0" d="M339.73,104.98c0.5,0,0.99-0.03,1.46-0.1c0.47-0.07,0.84-0.14,1.12-0.21v1.96
				c-0.31,0.13-0.77,0.24-1.37,0.33c-0.6,0.09-1.14,0.13-1.63,0.13c-3.65,0-5.47-1.72-5.47-5.16V91.89h-2.7v-1.23l2.7-1.06l1.2-3.6
				h1.65v3.91h5.47v1.99h-5.47v9.93c0,1.02,0.27,1.8,0.81,2.34C338.05,104.71,338.79,104.98,339.73,104.98z"/>
			<path class="Logo0" d="M356.62,106.78l-0.57-2.4h-0.14c-0.94,1.06-1.88,1.77-2.81,2.15c-0.94,0.37-2.1,0.56-3.5,0.56
				c-1.87,0-3.33-0.43-4.4-1.29c-1.06-0.86-1.59-2.09-1.59-3.68c0-3.41,3.04-5.19,9.13-5.36l3.2-0.09v-1.05
				c0-1.32-0.32-2.3-0.95-2.93s-1.65-0.95-3.05-0.95c-1.57,0-3.35,0.43-5.33,1.29l-0.88-1.96c0.93-0.45,1.95-0.81,3.05-1.06
				c1.11-0.26,2.22-0.38,3.33-0.38c2.25,0,3.91,0.45,5,1.34s1.63,2.33,1.63,4.3v11.52H356.62z M350.16,104.98
				c1.78,0,3.17-0.44,4.19-1.31c1.01-0.87,1.52-2.09,1.52-3.67v-1.52l-2.86,0.11c-2.27,0.07-3.91,0.39-4.91,0.95
				c-1,0.56-1.51,1.43-1.51,2.61c0,0.92,0.31,1.63,0.94,2.11S349.04,104.98,350.16,104.98z"/>
			<path class="Logo0" d="M384.55,106.78V95.86c0-1.38-0.35-2.4-1.05-3.08c-0.7-0.68-1.79-1.02-3.29-1.02c-1.97,0-3.42,0.48-4.33,1.43
				c-0.92,0.95-1.38,2.53-1.38,4.73v8.85h-2.86V89.9h2.32l0.46,2.31h0.14c0.58-0.83,1.4-1.48,2.46-1.93
				c1.05-0.46,2.23-0.69,3.53-0.69c2.27,0,3.98,0.49,5.13,1.47c1.15,0.98,1.72,2.55,1.72,4.7v11.01H384.55z"/>
			<path class="Logo0" d="M408.49,98.32c0,2.75-0.77,4.9-2.32,6.44c-1.55,1.55-3.69,2.32-6.42,2.32c-1.69,0-3.18-0.35-4.49-1.06
				c-1.31-0.71-2.32-1.73-3.03-3.05s-1.07-2.87-1.07-4.65c0-2.75,0.77-4.89,2.31-6.43c1.54-1.53,3.67-2.3,6.4-2.3
				c2.64,0,4.73,0.79,6.29,2.36C407.71,93.52,408.49,95.65,408.49,98.32z M394.13,98.32c0,2.16,0.48,3.8,1.44,4.93
				c0.96,1.13,2.38,1.69,4.25,1.69s3.29-0.56,4.26-1.69c0.97-1.12,1.45-2.77,1.45-4.94c0-2.15-0.48-3.78-1.45-4.89
				c-0.97-1.11-2.4-1.67-4.29-1.67c-1.87,0-3.28,0.55-4.23,1.65C394.6,94.51,394.13,96.15,394.13,98.32z"/>
			<path class="Logo0" d="M286.16,139.9h-2.92v-20.19h-7.96v-2.33h18.85v2.33h-7.96V139.9z"/>
			<path class="Logo0" d="M305.02,122.71c0.84,0,1.59,0.06,2.25,0.18l-0.4,2.37c-0.78-0.15-1.47-0.23-2.06-0.23
				c-1.53,0-2.83,0.55-3.91,1.66c-1.08,1.11-1.63,2.49-1.63,4.14v9.05h-2.86v-16.88h2.36l0.33,3.13h0.14
				c0.7-1.1,1.54-1.95,2.53-2.54C302.75,123.01,303.84,122.71,305.02,122.71z"/>
			<path class="Logo0" d="M321.33,139.9l-0.57-2.4h-0.14c-0.94,1.06-1.88,1.77-2.81,2.15c-0.94,0.37-2.1,0.56-3.5,0.56
				c-1.87,0-3.33-0.43-4.4-1.29c-1.06-0.86-1.59-2.09-1.59-3.68c0-3.41,3.04-5.19,9.13-5.36l3.2-0.09v-1.05
				c0-1.32-0.32-2.3-0.95-2.93s-1.65-0.95-3.05-0.95c-1.57,0-3.35,0.43-5.33,1.29l-0.88-1.96c0.93-0.45,1.95-0.81,3.05-1.06
				c1.11-0.26,2.22-0.38,3.33-0.38c2.25,0,3.91,0.45,5,1.34s1.63,2.33,1.63,4.3v11.52H321.33z M314.88,138.1
				c1.78,0,3.17-0.44,4.19-1.31c1.01-0.87,1.52-2.09,1.52-3.67v-1.52l-2.86,0.11c-2.27,0.07-3.91,0.39-4.91,0.95
				c-1,0.56-1.51,1.43-1.51,2.61c0,0.92,0.31,1.63,0.94,2.11S313.76,138.1,314.88,138.1z"/>
			<path class="Logo0" d="M337.05,122.74c2.48,0,4.4,0.76,5.77,2.27c1.37,1.51,2.06,3.66,2.06,6.43s-0.69,4.93-2.07,6.46
				s-3.3,2.3-5.75,2.3c-1.23,0-2.35-0.2-3.36-0.61c-1.01-0.41-1.87-1.03-2.55-1.87h-0.21l-0.6,2.17h-2.05v-23.96h2.86v5.82
				c0,1.3-0.05,2.47-0.14,3.51h0.14C332.46,123.59,334.43,122.74,337.05,122.74z M336.64,124.89c-1.95,0-3.35,0.5-4.21,1.5
				c-0.86,1-1.29,2.69-1.29,5.06s0.44,4.07,1.32,5.09c0.88,1.02,2.3,1.53,4.25,1.53c1.75,0,3.06-0.57,3.92-1.72
				c0.86-1.15,1.29-2.79,1.29-4.94c0-2.2-0.43-3.83-1.29-4.91C339.77,125.42,338.44,124.89,336.64,124.89z"/>
			<path class="Logo0" d="M360.4,139.9l-0.57-2.4h-0.14c-0.94,1.06-1.88,1.77-2.81,2.15c-0.94,0.37-2.1,0.56-3.5,0.56
				c-1.87,0-3.33-0.43-4.4-1.29c-1.06-0.86-1.59-2.09-1.59-3.68c0-3.41,3.04-5.19,9.13-5.36l3.2-0.09v-1.05
				c0-1.32-0.32-2.3-0.95-2.93s-1.65-0.95-3.05-0.95c-1.57,0-3.35,0.43-5.33,1.29l-0.88-1.96c0.93-0.45,1.95-0.81,3.05-1.06
				c1.11-0.26,2.22-0.38,3.33-0.38c2.25,0,3.91,0.45,5,1.34s1.63,2.33,1.63,4.3v11.52H360.4z M353.95,138.1
				c1.78,0,3.17-0.44,4.19-1.31c1.01-0.87,1.52-2.09,1.52-3.67v-1.52l-2.86,0.11c-2.27,0.07-3.91,0.39-4.91,0.95
				c-1,0.56-1.51,1.43-1.51,2.61c0,0.92,0.31,1.63,0.94,2.11S352.83,138.1,353.95,138.1z"/>
			<path class="Logo0" d="M370.2,139.9h-2.86v-23.96h2.86V139.9z"/>
			<path class="Logo0" d="M388.1,139.9v-10.92c0-1.38-0.35-2.4-1.05-3.08c-0.7-0.68-1.79-1.02-3.29-1.02c-1.98,0-3.43,0.48-4.34,1.45
				c-0.91,0.97-1.37,2.55-1.37,4.74v8.82h-2.86v-23.96h2.86v7.25c0,0.87-0.05,1.6-0.14,2.17h0.17c0.56-0.81,1.36-1.45,2.4-1.92
				c1.04-0.47,2.22-0.7,3.55-0.7c2.3,0,4.03,0.49,5.19,1.47s1.73,2.54,1.73,4.67v11.01H388.1z"/>
			<path class="Logo0" d="M412.03,131.45c0,2.75-0.77,4.9-2.32,6.44c-1.55,1.55-3.69,2.32-6.42,2.32c-1.69,0-3.18-0.35-4.49-1.06
				c-1.31-0.71-2.32-1.73-3.03-3.05s-1.07-2.87-1.07-4.65c0-2.75,0.77-4.89,2.31-6.43c1.54-1.53,3.67-2.3,6.4-2.3
				c2.64,0,4.73,0.79,6.29,2.36C411.26,126.64,412.03,128.77,412.03,131.45z M397.67,131.45c0,2.16,0.48,3.8,1.44,4.93
				c0.96,1.13,2.38,1.69,4.25,1.69s3.29-0.56,4.26-1.69c0.97-1.12,1.45-2.77,1.45-4.94c0-2.15-0.48-3.78-1.45-4.89
				c-0.97-1.11-2.4-1.67-4.29-1.67c-1.87,0-3.28,0.55-4.23,1.65C398.15,127.63,397.67,129.27,397.67,131.45z"/>
		</g>
	</g>
	<g>
		<rect x="257.28" y="11.26" class="Logo0" width="2.59" height="136.48"/>
	</g>
</g>
</svg>
