<?xml version="1.0" encoding="utf-8"?>
<!-- Generator: Adobe Illustrator 26.0.1, SVG Export Plug-In . SVG Version: 6.00 Build 0)  -->
<svg version="1.0" id="Camada_1" xmlns="http://www.w3.org/2000/svg" xmlns:xlink="http://www.w3.org/1999/xlink" x="0px" y="0px"
	 viewBox="0 0 120 120" style="enable-background:new 0 0 120 120;" xml:space="preserve">
<style type="text/css">
	.st0{fill-rule:evenodd;clip-rule:evenodd;fill:#FFFFFF;}
	.st1{fill:#FFFFFF;}
</style>
<g>
	<path class="st0" d="M72.93,52.86v-7.2H49.86v28.67h9.49v-9.33h12.72v-7.2H59.35v-4.95H72.93z M60,32.31
		c14.92,0,27.01,12.4,27.01,27.69S74.92,87.69,60,87.69c-14.92,0-27.01-12.4-27.01-27.69S45.08,32.31,60,32.31z"/>
	<path class="st1" d="M103.35,20.39v39.85h0c-0.06,11.49-4.56,22.28-12.69,30.41c-8.19,8.19-19.07,12.7-30.65,12.7
		c-11.58,0-22.46-4.51-30.65-12.7c-8.19-8.19-12.7-19.07-12.7-30.65c0-11.58,4.51-22.46,12.7-30.65c8.19-8.19,19.07-12.7,30.65-12.7
		c10.35,0,20.14,3.6,27.95,10.21V8.34C79.63,3.82,70.11,1.26,60,1.26C27.61,1.26,1.26,27.61,1.26,60
		c0,32.39,26.35,58.74,58.74,58.74c32.39,0,58.74-26.35,58.74-58.74C118.74,44.75,112.9,30.85,103.35,20.39"/>
</g>
</svg>
