<?xml version="1.0" encoding="utf-8"?>
<!-- Generator: Adobe Illustrator 26.0.1, SVG Export Plug-In . SVG Version: 6.00 Build 0)  -->
<svg version="1.1" id="Camada_1" xmlns="http://www.w3.org/2000/svg" xmlns:xlink="http://www.w3.org/1999/xlink" x="0px" y="0px"
	 viewBox="0 0 602.81 88.85" style="enable-background:new 0 0 602.81 88.85;" xml:space="preserve">
<style type="text/css">
	.st0{fill:#FFFFFF;}
</style>
<g>
	<path class="st0" d="M158,59.22c-2.24,7.6-9.28,13.17-17.6,13.17c-8.32,0-15.35-5.56-17.6-13.17h-9.29
		c2.43,12.63,13.56,22.2,26.89,22.2c13.32,0,24.45-9.56,26.89-22.2H158z"/>
	<circle class="st0" cx="120.3" cy="36.07" r="5.67"/>
	<path class="st0" d="M5.08,59.13V10.72h36.44v8.86H16.05V30.1h24.94v8.85H16.05v20.18H5.08z"/>
	<path class="st0" d="M46.85,59.13V10.72h10.96v48.41H46.85z"/>
	<path class="st0" d="M65.69,59.13V10.72h27.1c9.81,0,14.82,5.88,14.82,12.34c0,6.1-4.01,10.16-8.88,11.1
		c5.48,0.8,9.88,5.81,9.88,11.9c0,7.26-5.17,13.06-14.98,13.06H65.69z M76.65,30.17h13.74c3.71,0,6.02-2.25,6.02-5.37
		c0-2.98-2.32-5.3-6.02-5.3H76.65V30.17z M76.65,50.35h14.13c4.17,0,6.64-2.25,6.64-5.73c0-3.05-2.32-5.66-6.64-5.66H76.65V50.35z"
		/>
	<path class="st0" d="M134.95,59.13V19.8H113.2v-9.07h54.48v9.07h-21.68v39.33H134.95z"/>
	<g>
		<path class="st0" d="M194.55,44.07h-2.18V26.79h10.45v1.78h-8.27v6.32h7.77v1.78h-7.77V44.07z"/>
		<path class="st0" d="M210.49,44.3c-2.08,0-3.72-0.58-4.92-1.75c-1.2-1.17-1.8-2.78-1.8-4.86c0-2.09,0.56-3.75,1.67-4.97
			c1.12-1.23,2.61-1.84,4.49-1.84c1.76,0,3.15,0.53,4.18,1.6c1.03,1.07,1.54,2.48,1.54,4.22v1.24h-9.68
			c0.04,1.52,0.46,2.67,1.25,3.46c0.79,0.79,1.9,1.18,3.34,1.18c1.51,0,3.01-0.29,4.49-0.87v1.75c-0.75,0.3-1.46,0.51-2.13,0.64
			S211.44,44.3,210.49,44.3z M209.91,32.52c-1.13,0-2.03,0.34-2.7,1.02s-1.07,1.61-1.19,2.81h7.34c0-1.24-0.3-2.18-0.9-2.84
			C211.88,32.85,211.02,32.52,209.91,32.52z"/>
		<path class="st0" d="M220.36,44.07h-2.13V25.68h2.13V44.07z"/>
		<path class="st0" d="M223.64,27.61c0-0.45,0.12-0.78,0.36-0.99c0.24-0.21,0.54-0.31,0.9-0.31c0.34,0,0.64,0.11,0.88,0.32
			c0.25,0.21,0.37,0.54,0.37,0.98c0,0.44-0.12,0.77-0.37,0.99c-0.25,0.22-0.54,0.32-0.88,0.32c-0.36,0-0.66-0.11-0.9-0.32
			S223.64,28.05,223.64,27.61z M225.95,44.07h-2.13V31.12h2.13V44.07z"/>
		<path class="st0" d="M235.03,44.3c-2.03,0-3.61-0.58-4.72-1.73c-1.12-1.15-1.67-2.79-1.67-4.9c0-2.17,0.57-3.84,1.7-5.02
			c1.13-1.18,2.75-1.77,4.84-1.77c0.67,0,1.35,0.07,2.03,0.2c0.67,0.13,1.21,0.29,1.59,0.47l-0.65,1.67
			c-0.47-0.17-0.98-0.32-1.54-0.43s-1.05-0.17-1.47-0.17c-2.85,0-4.28,1.68-4.28,5.03c0,1.59,0.35,2.81,1.04,3.66
			s1.73,1.28,3.1,1.28c1.17,0,2.37-0.23,3.6-0.7v1.74C237.64,44.08,236.45,44.3,235.03,44.3z"/>
		<path class="st0" d="M240.68,27.61c0-0.45,0.12-0.78,0.36-0.99c0.24-0.21,0.54-0.31,0.9-0.31c0.34,0,0.64,0.11,0.88,0.32
			c0.25,0.21,0.37,0.54,0.37,0.98c0,0.44-0.12,0.77-0.37,0.99c-0.25,0.22-0.54,0.32-0.88,0.32c-0.36,0-0.66-0.11-0.9-0.32
			S240.68,28.05,240.68,27.61z M242.99,44.07h-2.13V31.12h2.13V44.07z"/>
		<path class="st0" d="M256.01,42.33h-0.12c-0.98,1.32-2.45,1.97-4.41,1.97c-1.84,0-3.27-0.58-4.29-1.74
			c-1.02-1.16-1.53-2.8-1.53-4.94c0-2.13,0.51-3.79,1.54-4.97c1.03-1.18,2.45-1.77,4.28-1.77c1.91,0,3.37,0.64,4.38,1.91h0.17
			l-0.09-0.93l-0.05-0.91v-5.27h2.13v18.38h-1.73L256.01,42.33z M251.76,42.66c1.45,0,2.51-0.36,3.16-1.09
			c0.65-0.73,0.98-1.9,0.98-3.53v-0.41c0-1.83-0.33-3.14-0.99-3.93c-0.66-0.78-1.72-1.18-3.17-1.18c-1.25,0-2.2,0.45-2.86,1.34
			c-0.66,0.89-0.99,2.16-0.99,3.79c0,1.65,0.33,2.9,0.99,3.75S250.48,42.66,251.76,42.66z"/>
		<path class="st0" d="M270.13,44.07l-0.42-1.84h-0.1c-0.7,0.81-1.4,1.36-2.1,1.65c-0.7,0.29-1.57,0.43-2.61,0.43
			c-1.39,0-2.49-0.33-3.28-0.99c-0.79-0.66-1.19-1.6-1.19-2.82c0-2.61,2.27-3.99,6.81-4.11l2.38-0.07v-0.8
			c0-1.02-0.24-1.77-0.71-2.25s-1.23-0.73-2.28-0.73c-1.17,0-2.5,0.33-3.97,0.99l-0.65-1.5c0.69-0.35,1.45-0.62,2.28-0.82
			c0.83-0.2,1.65-0.29,2.48-0.29c1.67,0,2.92,0.34,3.72,1.03c0.81,0.69,1.21,1.78,1.21,3.3v8.84H270.13z M265.32,42.69
			c1.32,0,2.37-0.33,3.12-1c0.76-0.67,1.13-1.61,1.13-2.81V37.7l-2.13,0.08c-1.69,0.05-2.91,0.3-3.66,0.73
			c-0.75,0.43-1.12,1.1-1.12,2c0,0.71,0.23,1.25,0.7,1.62S264.48,42.69,265.32,42.69z"/>
		<path class="st0" d="M284.6,42.33h-0.12c-0.98,1.32-2.45,1.97-4.41,1.97c-1.84,0-3.27-0.58-4.29-1.74
			c-1.02-1.16-1.53-2.8-1.53-4.94c0-2.13,0.51-3.79,1.54-4.97c1.03-1.18,2.45-1.77,4.28-1.77c1.91,0,3.37,0.64,4.38,1.91h0.17
			l-0.09-0.93l-0.05-0.91v-5.27h2.13v18.38h-1.73L284.6,42.33z M280.34,42.66c1.45,0,2.51-0.36,3.16-1.09
			c0.65-0.73,0.98-1.9,0.98-3.53v-0.41c0-1.83-0.33-3.14-0.99-3.93c-0.66-0.78-1.72-1.18-3.17-1.18c-1.25,0-2.2,0.45-2.86,1.34
			c-0.66,0.89-0.99,2.16-0.99,3.79c0,1.65,0.33,2.9,0.99,3.75S279.07,42.66,280.34,42.66z"/>
		<path class="st0" d="M296.01,44.3c-2.08,0-3.72-0.58-4.92-1.75c-1.2-1.17-1.8-2.78-1.8-4.86c0-2.09,0.56-3.75,1.67-4.97
			c1.12-1.23,2.61-1.84,4.49-1.84c1.76,0,3.15,0.53,4.18,1.6c1.03,1.07,1.54,2.48,1.54,4.22v1.24h-9.68
			c0.04,1.52,0.46,2.67,1.25,3.46c0.79,0.79,1.9,1.18,3.34,1.18c1.51,0,3.01-0.29,4.49-0.87v1.75c-0.75,0.3-1.46,0.51-2.13,0.64
			S296.96,44.3,296.01,44.3z M295.43,32.52c-1.13,0-2.03,0.34-2.7,1.02s-1.07,1.61-1.19,2.81h7.34c0-1.24-0.3-2.18-0.9-2.84
			C297.4,32.85,296.54,32.52,295.43,32.52z"/>
		<path class="st0" d="M309.84,44.07V26.79h2.18v17.27H309.84z"/>
		<path class="st0" d="M325.41,44.07v-8.38c0-1.06-0.26-1.84-0.78-2.36s-1.34-0.78-2.45-0.78c-1.47,0-2.55,0.37-3.23,1.1
			s-1.03,1.94-1.03,3.63v6.79h-2.13V31.12h1.73l0.35,1.77h0.1c0.44-0.64,1.05-1.13,1.83-1.48s1.66-0.53,2.63-0.53
			c1.69,0,2.96,0.38,3.82,1.13c0.85,0.75,1.28,1.96,1.28,3.61v8.45H325.41z"/>
		<path class="st0" d="M335.39,42.69c0.38,0,0.74-0.03,1.09-0.08c0.35-0.05,0.63-0.1,0.83-0.16v1.5c-0.23,0.1-0.57,0.19-1.02,0.25
			c-0.45,0.07-0.85,0.1-1.21,0.1c-2.72,0-4.08-1.32-4.08-3.96v-7.7H329V31.7l2.01-0.82l0.9-2.76h1.23v3h4.08v1.52h-4.08v7.62
			c0,0.78,0.2,1.38,0.6,1.8C334.14,42.48,334.69,42.69,335.39,42.69z"/>
		<path class="st0" d="M345.01,44.3c-2.08,0-3.72-0.58-4.92-1.75c-1.2-1.17-1.8-2.78-1.8-4.86c0-2.09,0.56-3.75,1.67-4.97
			c1.12-1.23,2.61-1.84,4.49-1.84c1.76,0,3.15,0.53,4.18,1.6c1.03,1.07,1.54,2.48,1.54,4.22v1.24h-9.68
			c0.04,1.52,0.46,2.67,1.25,3.46c0.79,0.79,1.9,1.18,3.34,1.18c1.51,0,3.01-0.29,4.49-0.87v1.75c-0.75,0.3-1.46,0.51-2.13,0.64
			S345.96,44.3,345.01,44.3z M344.43,32.52c-1.13,0-2.03,0.34-2.7,1.02s-1.07,1.61-1.19,2.81h7.34c0-1.24-0.3-2.18-0.9-2.84
			C346.4,32.85,345.54,32.52,344.43,32.52z"/>
		<path class="st0" d="M359.16,30.88c0.62,0,1.18,0.05,1.68,0.14l-0.29,1.82c-0.58-0.12-1.09-0.18-1.54-0.18
			c-1.14,0-2.11,0.42-2.92,1.28s-1.21,1.91-1.21,3.18v6.95h-2.13V31.12h1.76l0.24,2.4h0.1c0.52-0.84,1.15-1.49,1.88-1.95
			C357.47,31.11,358.28,30.88,359.16,30.88z"/>
		<path class="st0" d="M372.03,44.07v-8.38c0-1.06-0.26-1.84-0.78-2.36s-1.34-0.78-2.45-0.78c-1.47,0-2.55,0.37-3.23,1.1
			s-1.03,1.94-1.03,3.63v6.79h-2.13V31.12h1.73l0.35,1.77h0.1c0.44-0.64,1.05-1.13,1.83-1.48s1.66-0.53,2.63-0.53
			c1.69,0,2.96,0.38,3.82,1.13c0.85,0.75,1.28,1.96,1.28,3.61v8.45H372.03z"/>
		<path class="st0" d="M386.12,44.07l-0.42-1.84h-0.1c-0.7,0.81-1.4,1.36-2.1,1.65c-0.7,0.29-1.57,0.43-2.61,0.43
			c-1.39,0-2.49-0.33-3.28-0.99c-0.79-0.66-1.19-1.6-1.19-2.82c0-2.61,2.27-3.99,6.81-4.11l2.38-0.07v-0.8
			c0-1.02-0.24-1.77-0.71-2.25s-1.23-0.73-2.28-0.73c-1.17,0-2.5,0.33-3.97,0.99l-0.65-1.5c0.69-0.35,1.45-0.62,2.28-0.82
			c0.83-0.2,1.65-0.29,2.48-0.29c1.67,0,2.92,0.34,3.72,1.03c0.81,0.69,1.21,1.78,1.21,3.3v8.84H386.12z M381.31,42.69
			c1.32,0,2.37-0.33,3.12-1c0.76-0.67,1.13-1.61,1.13-2.81V37.7l-2.13,0.08c-1.69,0.05-2.91,0.3-3.66,0.73
			c-0.75,0.43-1.12,1.1-1.12,2c0,0.71,0.23,1.25,0.7,1.62S380.48,42.69,381.31,42.69z"/>
		<path class="st0" d="M397.12,26.79h5.29c2.49,0,4.29,0.34,5.4,1.03c1.11,0.69,1.67,1.77,1.67,3.25c0,1.02-0.31,1.87-0.93,2.53
			c-0.62,0.67-1.52,1.1-2.71,1.29v0.12c2.85,0.45,4.27,1.83,4.27,4.13c0,1.54-0.57,2.75-1.7,3.62c-1.13,0.87-2.72,1.3-4.75,1.3
			h-6.54V26.79z M399.3,34.19h3.59c1.54,0,2.65-0.22,3.32-0.67c0.67-0.45,1.01-1.2,1.01-2.25c0-0.97-0.38-1.67-1.13-2.1
			c-0.75-0.43-1.95-0.64-3.59-0.64h-3.2V34.19z M399.3,35.89v6.46h3.91c1.51,0,2.65-0.27,3.42-0.81c0.76-0.54,1.15-1.38,1.15-2.53
			c0-1.07-0.39-1.86-1.17-2.36c-0.78-0.5-1.97-0.76-3.57-0.76H399.3z"/>
		<path class="st0" d="M419.17,30.88c0.62,0,1.18,0.05,1.68,0.14l-0.29,1.82c-0.58-0.12-1.09-0.18-1.54-0.18
			c-1.14,0-2.11,0.42-2.92,1.28s-1.21,1.91-1.21,3.18v6.95h-2.13V31.12h1.76l0.24,2.4h0.1c0.52-0.84,1.15-1.49,1.88-1.95
			C417.48,31.11,418.29,30.88,419.17,30.88z"/>
		<path class="st0" d="M424.43,31.12v8.4c0,1.06,0.26,1.84,0.78,2.36c0.52,0.52,1.34,0.78,2.45,0.78c1.47,0,2.54-0.37,3.22-1.11
			s1.02-1.95,1.02-3.63v-6.8h2.13v12.95h-1.76l-0.31-1.74h-0.12c-0.44,0.64-1.04,1.13-1.81,1.46c-0.77,0.34-1.66,0.51-2.65,0.51
			c-1.71,0-2.99-0.37-3.84-1.12c-0.85-0.75-1.28-1.95-1.28-3.59v-8.47H424.43z"/>
		<path class="st0" d="M442.03,42.69c0.38,0,0.74-0.03,1.09-0.08c0.35-0.05,0.63-0.1,0.83-0.16v1.5c-0.23,0.1-0.57,0.19-1.02,0.25
			c-0.45,0.07-0.85,0.1-1.21,0.1c-2.72,0-4.08-1.32-4.08-3.96v-7.7h-2.01V31.7l2.01-0.82l0.9-2.76h1.23v3h4.08v1.52h-4.08v7.62
			c0,0.78,0.2,1.38,0.6,1.8C440.78,42.48,441.33,42.69,442.03,42.69z"/>
		<path class="st0" d="M454.35,44.07l-0.42-1.84h-0.1c-0.7,0.81-1.4,1.36-2.1,1.65c-0.7,0.29-1.57,0.43-2.61,0.43
			c-1.39,0-2.49-0.33-3.28-0.99c-0.79-0.66-1.19-1.6-1.19-2.82c0-2.61,2.27-3.99,6.81-4.11l2.38-0.07v-0.8
			c0-1.02-0.24-1.77-0.71-2.25s-1.23-0.73-2.28-0.73c-1.17,0-2.5,0.33-3.97,0.99l-0.65-1.5c0.69-0.35,1.45-0.62,2.28-0.82
			c0.83-0.2,1.65-0.29,2.48-0.29c1.67,0,2.92,0.34,3.72,1.03c0.81,0.69,1.21,1.78,1.21,3.3v8.84H454.35z M449.54,42.69
			c1.32,0,2.37-0.33,3.12-1c0.76-0.67,1.13-1.61,1.13-2.81V37.7l-2.13,0.08c-1.69,0.05-2.91,0.3-3.66,0.73
			c-0.75,0.43-1.12,1.1-1.12,2c0,0.71,0.23,1.25,0.7,1.62S448.7,42.69,449.54,42.69z"/>
		<path class="st0" d="M474.64,44.07v-8.38c0-1.06-0.26-1.84-0.78-2.36s-1.34-0.78-2.45-0.78c-1.47,0-2.55,0.37-3.23,1.1
			s-1.03,1.94-1.03,3.63v6.79h-2.13V31.12h1.73l0.35,1.77h0.1c0.44-0.64,1.05-1.13,1.83-1.48s1.66-0.53,2.63-0.53
			c1.69,0,2.96,0.38,3.82,1.13c0.85,0.75,1.28,1.96,1.28,3.61v8.45H474.64z"/>
		<path class="st0" d="M492.22,37.58c0,2.11-0.58,3.76-1.73,4.94c-1.15,1.19-2.75,1.78-4.78,1.78c-1.26,0-2.37-0.27-3.35-0.82
			c-0.97-0.54-1.73-1.32-2.26-2.34c-0.53-1.02-0.79-2.21-0.79-3.57c0-2.11,0.57-3.75,1.72-4.93c1.15-1.18,2.74-1.77,4.77-1.77
			c1.97,0,3.53,0.6,4.69,1.81C491.64,33.9,492.22,35.53,492.22,37.58z M481.51,37.58c0,1.65,0.36,2.91,1.08,3.78
			c0.72,0.87,1.77,1.3,3.17,1.3s2.45-0.43,3.17-1.29c0.72-0.86,1.08-2.12,1.08-3.79c0-1.65-0.36-2.9-1.08-3.75
			c-0.72-0.85-1.79-1.28-3.2-1.28c-1.39,0-2.44,0.42-3.15,1.26C481.87,34.66,481.51,35.91,481.51,37.58z"/>
		<path class="st0" d="M506.76,44.07h-2.18V28.58h-5.94v-1.78h14.05v1.78h-5.94V44.07z"/>
		<path class="st0" d="M520.55,30.88c0.62,0,1.18,0.05,1.68,0.14l-0.29,1.82c-0.58-0.12-1.09-0.18-1.54-0.18
			c-1.14,0-2.11,0.42-2.92,1.28s-1.21,1.91-1.21,3.18v6.95h-2.13V31.12h1.76l0.24,2.4h0.1c0.52-0.84,1.15-1.49,1.88-1.95
			C518.86,31.11,519.67,30.88,520.55,30.88z"/>
		<path class="st0" d="M532.45,44.07l-0.42-1.84h-0.1c-0.7,0.81-1.4,1.36-2.1,1.65c-0.7,0.29-1.57,0.43-2.61,0.43
			c-1.39,0-2.49-0.33-3.28-0.99c-0.79-0.66-1.19-1.6-1.19-2.82c0-2.61,2.27-3.99,6.81-4.11l2.38-0.07v-0.8
			c0-1.02-0.24-1.77-0.71-2.25s-1.23-0.73-2.28-0.73c-1.17,0-2.5,0.33-3.97,0.99l-0.65-1.5c0.69-0.35,1.45-0.62,2.28-0.82
			c0.83-0.2,1.65-0.29,2.48-0.29c1.67,0,2.92,0.34,3.72,1.03c0.81,0.69,1.21,1.78,1.21,3.3v8.84H532.45z M527.64,42.69
			c1.32,0,2.37-0.33,3.12-1c0.76-0.67,1.13-1.61,1.13-2.81V37.7l-2.13,0.08c-1.69,0.05-2.91,0.3-3.66,0.73
			c-0.75,0.43-1.12,1.1-1.12,2c0,0.71,0.23,1.25,0.7,1.62S526.8,42.69,527.64,42.69z"/>
		<path class="st0" d="M543.89,30.91c1.85,0,3.28,0.58,4.3,1.74c1.02,1.16,1.53,2.81,1.53,4.93c0,2.13-0.51,3.78-1.54,4.96
			c-1.03,1.18-2.46,1.77-4.29,1.77c-0.92,0-1.75-0.16-2.51-0.47c-0.76-0.31-1.39-0.79-1.9-1.44h-0.15l-0.45,1.67h-1.53V25.68h2.13
			v4.47c0,1-0.03,1.9-0.1,2.69h0.1C540.48,31.55,541.94,30.91,543.89,30.91z M543.59,32.55c-1.45,0-2.5,0.38-3.14,1.15
			c-0.64,0.77-0.96,2.06-0.96,3.88s0.33,3.12,0.99,3.91c0.66,0.78,1.71,1.17,3.17,1.17c1.31,0,2.28-0.44,2.92-1.32
			c0.64-0.88,0.96-2.14,0.96-3.79c0-1.69-0.32-2.94-0.96-3.77S544.93,32.55,543.59,32.55z"/>
		<path class="st0" d="M561.03,44.07l-0.42-1.84h-0.1c-0.7,0.81-1.4,1.36-2.1,1.65c-0.7,0.29-1.57,0.43-2.61,0.43
			c-1.39,0-2.49-0.33-3.28-0.99c-0.79-0.66-1.19-1.6-1.19-2.82c0-2.61,2.27-3.99,6.81-4.11l2.38-0.07v-0.8
			c0-1.02-0.24-1.77-0.71-2.25s-1.23-0.73-2.28-0.73c-1.17,0-2.5,0.33-3.97,0.99l-0.65-1.5c0.69-0.35,1.45-0.62,2.28-0.82
			c0.83-0.2,1.65-0.29,2.48-0.29c1.67,0,2.92,0.34,3.72,1.03c0.81,0.69,1.21,1.78,1.21,3.3v8.84H561.03z M556.23,42.69
			c1.32,0,2.37-0.33,3.12-1c0.76-0.67,1.13-1.61,1.13-2.81V37.7l-2.13,0.08c-1.69,0.05-2.91,0.3-3.66,0.73
			c-0.75,0.43-1.12,1.1-1.12,2c0,0.71,0.23,1.25,0.7,1.62S555.39,42.69,556.23,42.69z"/>
		<path class="st0" d="M568.07,44.07h-2.13V25.68h2.13V44.07z"/>
		<path class="st0" d="M581.15,44.07v-8.38c0-1.06-0.26-1.84-0.78-2.36s-1.34-0.78-2.45-0.78c-1.48,0-2.56,0.37-3.24,1.11
			c-0.68,0.74-1.02,1.95-1.02,3.64v6.77h-2.13V25.68h2.13v5.56c0,0.67-0.03,1.22-0.1,1.67h0.13c0.42-0.62,1.01-1.11,1.79-1.47
			c0.77-0.36,1.66-0.54,2.65-0.54c1.72,0,3.01,0.38,3.87,1.13c0.86,0.75,1.29,1.95,1.29,3.59v8.45H581.15z"/>
		<path class="st0" d="M598.72,37.58c0,2.11-0.58,3.76-1.73,4.94c-1.15,1.19-2.75,1.78-4.78,1.78c-1.26,0-2.37-0.27-3.35-0.82
			c-0.97-0.54-1.73-1.32-2.26-2.34c-0.53-1.02-0.79-2.21-0.79-3.57c0-2.11,0.57-3.75,1.72-4.93c1.15-1.18,2.74-1.77,4.77-1.77
			c1.97,0,3.53,0.6,4.69,1.81C598.15,33.9,598.72,35.53,598.72,37.58z M588.02,37.58c0,1.65,0.36,2.91,1.08,3.78
			c0.72,0.87,1.77,1.3,3.17,1.3s2.45-0.43,3.17-1.29c0.72-0.86,1.08-2.12,1.08-3.79c0-1.65-0.36-2.9-1.08-3.75
			c-0.72-0.85-1.79-1.28-3.2-1.28c-1.39,0-2.44,0.42-3.15,1.26C588.37,34.66,588.02,35.91,588.02,37.58z"/>
	</g>
	<g>
		<rect x="178.82" y="10.74" class="st0" width="1.71" height="48.83"/>
	</g>
</g>
</svg>
