<?xml version="1.0" encoding="utf-8"?>
<!-- Generator: Adobe Illustrator 26.0.1, SVG Export Plug-In . SVG Version: 6.00 Build 0)  -->
<svg version="1.1" id="Camada_1" xmlns="http://www.w3.org/2000/svg" xmlns:xlink="http://www.w3.org/1999/xlink" x="0px" y="0px"
	 viewBox="0 0 110 110" style="enable-background:new 0 0 110 110;" xml:space="preserve">
<style type="text/css">
	.feliciencia0{fill:#CA7C02;}
	.feliciencia1{fill:#FFFFFF;}
</style>
<g>
	<rect class="feliciencia0" width="110" height="110"/>
	<polygon class="feliciencia1" points="29.17,21.06 17.75,21.06 17.75,17.75 29.44,17.75 29.44,12.16 10.47,12.16 10.47,35.79 17.75,35.79 
		17.75,26.64 29.17,26.64 	"/>
	<polygon class="feliciencia1" points="51.06,17.75 51.06,12.16 32.09,12.16 32.09,35.79 51.06,35.79 51.06,30.21 39.37,30.21 39.37,26.64 
		50.79,26.64 50.79,21.06 39.37,21.06 39.37,17.75 	"/>
	<polygon class="feliciencia1" points="53.86,12.16 53.86,35.79 70.87,35.79 70.87,29.92 61.14,29.92 61.14,12.16 	"/>
	<rect x="73.33" y="12.16" class="feliciencia1" width="7.28" height="23.63"/>
	<path class="feliciencia1" d="M21.35,44.24c-7.93,0-13.68,5.14-13.68,12.23S13.42,68.7,21.35,68.7c7.1,0,10.24-4.08,11.52-6.68l-6.22-2.69
		c-0.83,2.03-2.97,3.43-5.29,3.43c-3.58,0-6.29-2.7-6.29-6.28c0-3.58,2.7-6.28,6.29-6.28c2.33,0,4.46,1.4,5.29,3.43l6.23-2.72
		C31.37,47.8,28.17,44.24,21.35,44.24z"/>
	<rect x="34.71" y="44.63" class="feliciencia1" width="7.28" height="23.63"/>
	<g>
		<polygon class="feliciencia1" points="64.46,50.22 64.46,44.63 45.49,44.63 45.49,68.26 64.46,68.26 64.46,62.68 52.77,62.68 52.77,59.11 
			64.19,59.11 64.19,53.53 52.77,53.53 52.77,50.22 		"/>
		<polygon class="feliciencia1" points="52.79,42.12 55.24,39.36 57.81,42.12 61.28,42.12 58.11,37.4 52.37,37.4 49.31,42.12 		"/>
	</g>
	<polygon class="feliciencia1" points="91.47,68.26 91.47,44.63 84.19,44.63 84.19,57.29 74.89,44.63 67.26,44.63 67.26,68.26 74.54,68.26 
		74.54,54.81 84.37,68.26 	"/>
	<path class="feliciencia1" d="M21.35,76.37c-7.93,0-13.68,5.14-13.68,12.23c0,7.09,5.75,12.23,13.68,12.23c7.1,0,10.24-4.08,11.52-6.68
		l-6.22-2.69c-0.83,2.03-2.97,3.43-5.29,3.43c-3.58,0-6.29-2.7-6.29-6.28s2.7-6.28,6.29-6.28c2.33,0,4.46,1.4,5.29,3.43l6.23-2.72
		C31.37,79.93,28.17,76.37,21.35,76.37z"/>
	<rect x="34.71" y="76.77" class="feliciencia1" width="7.28" height="23.63"/>
	<path class="feliciencia1" d="M61.92,97.29l1,3.11h7.89l-9.27-23.63H52.1l-9.27,23.63h7.89l1-3.11H61.92z M56.82,82.21l3.27,9.5h-6.54
		L56.82,82.21z"/>
</g>
</svg>
